# xmcd CD database file
#
# Track frame offsets:
#	150
#	5631
#	10901
#	25822
#	47228
#	60877
#	79018
#	97633
#	104264
#	121336
#	124411
#	138547
#	155797
#
# Disc length: 2411 seconds
#
# Revision: 0
# Processed by: cddbd v1.5.2PL0 Copyright (c) Steve Scherf et al.
# Submitted via: CDex 1.70beta2
#
DISCID=a009690d
DTITLE=Black Carrot - Drink The Black Forest
DYEAR=2008
DGENRE=Jazz
TTITLE0=Sing The Black Forest
TTITLE1=Keep Out
TTITLE2=Diamonds Aren't The Answer
TTITLE3=Toctic
TTITLE4=Nervous Was My Information
TTITLE5=The Snakes Bully The Worms
TTITLE6=Doves Fly Ahead Of Me
TTITLE7=The Archriderferlisa
TTITLE8=White Funk
TTITLE9=Why Why Why Woe
TTITLE10=Rubber Mummy
TTITLE11=Drink The Black Forest
TTITLE12=How Do You (Redefine Yourself?)
EXTD=YEAR: 2008
EXTT0=
EXTT1=
EXTT2=
EXTT3=
EXTT4=
EXTT5=
EXTT6=
EXTT7=
EXTT8=
EXTT9=
EXTT10=
EXTT11=
EXTT12=
PLAYORDER=
